<svg xmlns="http://www.w3.org/2000/svg" viewBox="0 0 512 512"><path fill="#333" d="M256 32C114.6 32 0 146.6 0 288v48c0 42.4 34.6 77 77 77 21.2 0 40.4-8.6 54.3-22.5 27.9 29.2 67 47.5 110.7 47.5h64c43.7 0 82.8-18.3 110.7-47.5 13.9 13.9 33.1 22.5 54.3 22.5 42.4 0 77-34.6 77-77v-48C448 146.6 397.4 32 256 32zm144 304c0 17.7-14.3 32-32 32s-32-14.3-32-32 14.3-32 32-32 32 14.3 32 32zm-256 0c0 17.7-14.3 32-32 32s-32-14.3-32-32 14.3-32 32-32 32 14.3 32 32zm128-64c-17.7 0-32-14.3-32-32s14.3-32 32-32 32 14.3 32 32-14.3 32-32 32z"/></svg>